<svg width="26" height="37" viewBox="0 0 26 37" fill="none" xmlns="http://www.w3.org/2000/svg">
<path d="M4.32995 0.804484L6.30445 0.173818C8.15245 -0.416515 10.1288 0.538651 10.9208 2.40498L12.4974 6.12298C13.1849 7.74182 12.8036 9.64665 11.5551 10.831L8.08461 14.1273C8.29911 16.1 8.96095 18.0415 10.0719 19.9518C11.1276 21.8001 12.5434 23.4179 14.2354 24.7093L18.4081 23.316C19.9884 22.7898 21.7099 23.3967 22.6798 24.8212L24.9384 28.1395C26.0678 29.7968 25.8643 32.0811 24.4654 33.4855L22.9658 34.9907C21.4734 36.4885 19.3431 37.033 17.3704 36.417C12.7156 34.965 8.43661 30.6548 4.53161 23.4865C0.621113 16.3072 -0.757555 10.2132 0.391946 5.21182C0.875946 3.10715 2.37561 1.42965 4.33361 0.804484H4.32995Z" fill="#812D9F"/>
</svg>
