<svg width="60" height="66" viewBox="0 0 60 66" fill="none" xmlns="http://www.w3.org/2000/svg">
<g id="&#208;&#184;&#208;&#186;&#208;&#190;&#208;&#189;&#208;&#186;&#208;&#176; 1">
<path id="Vector" d="M16.7434 27.4688H9.48959C8.87359 27.4688 8.375 27.9673 8.375 28.5833V35.8371C8.375 36.4524 8.87359 36.9517 9.48959 36.9517H16.7434C17.3594 36.9517 17.858 36.4524 17.858 35.8371V28.5833C17.858 27.9681 17.3594 27.4688 16.7434 27.4688ZM15.6288 34.7225H10.6042V29.6979H15.6288V34.7225Z" fill="#FCE302"/>
<path id="Vector_2" d="M33.6616 27.4688H26.4078C25.7918 27.4688 25.2932 27.9673 25.2932 28.5833V35.8371C25.2932 36.4524 25.7918 36.9517 26.4078 36.9517H33.6616C34.2768 36.9517 34.7762 36.4524 34.7762 35.8371V28.5833C34.7762 27.9681 34.2768 27.4688 33.6616 27.4688ZM32.547 34.7225H27.5224V29.6979H32.547V34.7225Z" fill="#FCE302"/>
<path id="Vector_3" d="M50.0578 27.4688H42.804C42.1888 27.4688 41.6895 27.9673 41.6895 28.5833V35.8371C41.6895 36.4524 42.1888 36.9517 42.804 36.9517H50.0578C50.6731 36.9517 51.1724 36.4524 51.1724 35.8371V28.5833C51.1724 27.9681 50.6731 27.4688 50.0578 27.4688ZM48.9432 34.7225H43.9186V29.6979H48.9432V34.7225Z" fill="#FCE302"/>
<path id="Vector_4" d="M16.7434 43.9915H9.48959C8.87359 43.9915 8.375 44.4908 8.375 45.106V52.3598C8.375 52.9751 8.87359 53.4744 9.48959 53.4744H16.7434C17.3594 53.4744 17.858 52.9751 17.858 52.3598V45.106C17.858 44.4908 17.3594 43.9915 16.7434 43.9915ZM15.6288 51.2452H10.6042V46.2206H15.6288V51.2452Z" fill="#FCE302"/>
<path id="Vector_5" d="M33.6616 43.9915H26.4078C25.7918 43.9915 25.2932 44.4908 25.2932 45.106V52.3598C25.2932 52.9751 25.7918 53.4744 26.4078 53.4744H33.6616C34.2768 53.4744 34.7762 52.9751 34.7762 52.3598V45.106C34.7762 44.4908 34.2768 43.9915 33.6616 43.9915ZM32.547 51.2452H27.5224V46.2206H32.547V51.2452Z" fill="#FCE302"/>
<path id="Vector_6" d="M50.0578 43.9915H42.804C42.1888 43.9915 41.6895 44.4908 41.6895 45.106V52.3598C41.6895 52.9751 42.1888 53.4744 42.804 53.4744H50.0578C50.6731 53.4744 51.1724 52.9751 51.1724 52.3598V45.106C51.1724 44.4908 50.6731 43.9915 50.0578 43.9915ZM48.9432 51.2452H43.9186V46.2206H48.9432V51.2452Z" fill="#FCE302"/>
<path id="Vector_7" d="M58.8854 5.88505H51.5239C51.5142 5.88505 51.5061 5.88728 51.4964 5.88802V4.40338C51.4964 1.97506 49.5213 0 47.093 0C44.6647 0 42.6896 1.9758 42.6896 4.40338V5.88505H34.3948V4.40338C34.3948 1.97506 32.4198 0 29.9915 0C27.5631 0 25.5881 1.9758 25.5881 4.40338V5.88505H17.2925V4.40338C17.2925 1.97506 15.3175 0 12.8891 0C10.4608 0 8.48576 1.9758 8.48576 4.40338V5.88579C8.48205 5.88579 8.47833 5.88505 8.47462 5.88505H1.11459C0.498594 5.88505 0 6.38364 0 6.99964V64.7697C0 65.385 0.498594 65.8843 1.11459 65.8843H58.8854C59.5007 65.8843 60 65.385 60 64.7697V6.99964C60 6.38364 59.5007 5.88505 58.8854 5.88505ZM44.9188 4.40338C44.9188 3.20408 45.8937 2.22919 47.093 2.22919C48.2923 2.22919 49.2672 3.20408 49.2672 4.40338V10.5537C49.2672 11.7523 48.2923 12.7279 47.093 12.7279C45.8937 12.7279 44.9188 11.753 44.9188 10.5537V4.40338ZM29.9915 2.22919C31.19 2.22919 32.1657 3.20408 32.1657 4.40338V10.5537C32.1657 11.7523 31.1908 12.7279 29.9915 12.7279C28.7922 12.7279 27.8173 11.753 27.8173 10.5537V7.10367C27.8202 7.06875 27.8277 7.03531 27.8277 6.9989C27.8277 6.96249 27.8202 6.92905 27.8173 6.89413V4.40338C27.8173 3.20408 28.7922 2.22919 29.9915 2.22919ZM10.7149 4.40338C10.7149 3.20408 11.6898 2.22919 12.8891 2.22919C14.0877 2.22919 15.0633 3.20408 15.0633 4.40338V10.5537C15.0633 11.7523 14.0884 12.7279 12.8891 12.7279C11.6898 12.7279 10.7149 11.753 10.7149 10.5537V4.40338ZM57.7708 63.6551H2.22919V8.11423H8.47462C8.47833 8.11423 8.48205 8.11349 8.48576 8.11349V10.5544C8.48576 12.9828 10.4616 14.9578 12.8891 14.9578C15.3167 14.9578 17.2925 12.9828 17.2925 10.5544V8.11498H25.5881V10.5544C25.5881 12.9828 27.5639 14.9578 29.9915 14.9578C32.419 14.9578 34.3948 12.9828 34.3948 10.5544V8.11498H42.6896V10.5544C42.6896 12.9828 44.6647 14.9578 47.093 14.9578C49.5213 14.9578 51.4964 12.9828 51.4964 10.5544V8.11126C51.5061 8.11126 51.5142 8.11423 51.5239 8.11423H57.7708V63.6551Z" fill="#FCE302"/>
</g>
</svg>
