<svg width="61" height="65" viewBox="0 0 61 65" fill="none" xmlns="http://www.w3.org/2000/svg">
<path id="&#208;&#184;&#208;&#186;&#208;&#190;&#208;&#189;&#208;&#186;&#208;&#176; 3" d="M60.1145 19.6643L30.8872 0.179361C30.5285 -0.0597871 30.0615 -0.0597871 29.7028 0.179361L0.47545 19.6643C0.17865 19.8621 0 20.1959 0 20.5525C0 20.9091 0.177938 21.2429 0.47545 21.4408L4.91464 24.4003V39.9969C4.91464 40.3606 5.0997 40.6994 5.40575 40.8958L29.8893 56.5921C30.0651 56.7045 30.2651 56.7608 30.4658 56.7608C30.6758 56.7608 30.8865 56.6988 31.0672 56.575L43.841 47.8603V53.9372L39.0823 63.4548C38.9172 63.7858 38.9349 64.1794 39.1285 64.4939C39.3229 64.8078 39.6673 65 40.0367 65H49.7799C50.15 65 50.4938 64.8078 50.6881 64.4939C50.8817 64.1794 50.9002 63.7858 50.7344 63.4548L45.9756 53.9372V46.4034L54.0732 40.8787C54.3643 40.6802 54.5387 40.3499 54.5387 39.9969V25.1576L60.1138 21.4408C60.4106 21.2429 60.5893 20.9091 60.5893 20.5525C60.5893 20.1959 60.4113 19.8621 60.1145 19.6643ZM41.7649 62.8647L44.9087 56.5771L48.0525 62.8647H41.7649ZM30.4473 54.4134L7.0499 39.4132V25.8238L29.7028 40.9264C29.8822 41.046 30.0886 41.1058 30.295 41.1058C30.5014 41.1058 30.7078 41.046 30.8872 40.9264L43.841 32.29V45.2752L30.4473 54.4134ZM52.4041 39.4332L45.9763 43.819V30.8665L52.4041 26.5811V39.4332ZM53.1009 23.5504C52.9436 23.6088 52.8048 23.702 52.6924 23.823L44.9087 29.0124L30.8872 19.6643C30.3954 19.3369 29.7334 19.47 29.4067 19.9604C29.08 20.4508 29.2124 21.1141 29.7028 21.4408L42.9841 30.295L30.295 38.7549L2.9922 20.5525L30.295 2.35092L57.5978 20.5525L53.1009 23.5504Z" fill="#35C968"/>
</svg>
