<svg width="54" height="65" viewBox="0 0 54 65" fill="none" xmlns="http://www.w3.org/2000/svg">
<g id="Group">
<path id="Vector" d="M25.7901 46.8175C25.7901 46.2622 25.34 45.8115 24.784 45.8115H2.0389C2.56271 35.8927 10.7954 27.9852 20.839 27.9852C24.4675 27.9852 27.9899 29.0194 31.0235 30.9772C31.4903 31.2776 32.1127 31.1442 32.4145 30.6767C32.7156 30.2099 32.5808 29.5868 32.1147 29.2857C28.7539 27.1187 24.8551 25.9731 20.839 25.9731C9.34876 25.9731 0 35.3239 0 46.8175C0 47.3729 0.450034 47.8236 1.00604 47.8236H24.784C25.3394 47.8236 25.7901 47.3729 25.7901 46.8175Z" fill="#30D2FF"/>
<path id="Vector_2" d="M20.4902 24.108C27.1381 24.108 32.5466 18.6989 32.5466 12.0496C32.5466 5.40577 27.1381 0 20.4902 0C13.8471 0 8.44263 5.40577 8.44263 12.0496C8.44263 18.6982 13.8471 24.108 20.4902 24.108ZM20.4902 2.01207C26.0281 2.01207 30.5345 6.51509 30.5345 12.0496C30.5345 17.5889 26.0288 22.0959 20.4902 22.0959C14.957 22.0959 10.4547 17.5889 10.4547 12.0496C10.4547 6.51509 14.957 2.01207 20.4902 2.01207Z" fill="#30D2FF"/>
<path id="Vector_3" d="M53.6599 58.6478L46.6888 48.5097C48.0188 46.7599 48.7558 44.6452 48.7706 42.4098C48.8115 36.7599 44.2488 32.1287 38.5982 32.0858C32.9691 32.059 28.3165 36.6157 28.275 42.2656C28.2595 44.5573 29.0107 46.6727 30.275 48.3903L23.1522 58.4299C22.9128 58.7686 22.9047 59.2193 23.1328 59.5654C23.3608 59.9114 23.7766 60.0825 24.1831 59.9959L29.8182 58.7914L30.8082 64.0851C30.8866 64.5043 31.22 64.8283 31.6412 64.8947C31.6935 64.9027 31.7458 64.9067 31.7968 64.9067C32.1623 64.9067 32.5043 64.7075 32.6814 64.3789L38.4426 53.7189L44.0523 64.4594C44.2273 64.7947 44.5727 65 44.943 65C44.9899 65 45.0375 64.9966 45.0851 64.9899C45.507 64.9295 45.8457 64.611 45.9302 64.1931L46.9966 58.9161L52.6049 60.1992C53.0074 60.291 53.4292 60.1274 53.6619 59.784C53.896 59.4393 53.8947 58.9886 53.6599 58.6478ZM38.5298 34.0979C38.5473 34.0979 38.566 34.0979 38.5835 34.0979C43.1247 34.1321 46.7914 37.8551 46.7579 42.3957C46.7438 44.5929 45.8725 46.6546 44.3045 48.1985C42.7518 49.7277 40.7022 50.568 38.5265 50.5674C38.5063 50.5674 38.4849 50.5674 38.4641 50.5674C33.9249 50.5365 30.2568 46.8182 30.287 42.279C30.3199 37.7565 34.0134 34.0979 38.5298 34.0979ZM32.2642 60.9208L31.6076 57.4064C31.558 57.1401 31.4017 56.9041 31.1764 56.7538C30.9497 56.6022 30.672 56.5493 30.4078 56.6069L26.2877 57.4876L31.6573 49.9195C33.0831 51.2112 34.8705 52.1039 36.8524 52.4305L32.2642 60.9208ZM46.4406 56.723C46.1744 56.6619 45.898 56.7116 45.6707 56.8578C45.4426 57.0053 45.2843 57.2381 45.23 57.5043L44.5218 61.0094L40.0536 52.4554C41.9933 52.1663 43.7961 51.3306 45.285 50.0187L50.5399 57.6613L46.4406 56.723Z" fill="#30D2FF"/>
</g>
</svg>
