<svg width="57" height="65" viewBox="0 0 57 65" fill="none" xmlns="http://www.w3.org/2000/svg">
<g id="&#208;&#184;&#208;&#186;&#208;&#190;&#208;&#189;&#208;&#186;&#208;&#176; 2">
<path id="Vector" d="M55.3246 36.4336C54.6145 35.6262 53.635 35.1445 52.5674 35.0772C51.5116 35.0133 50.4891 35.3611 49.6908 36.0657L40.8422 43.9632C40.8165 43.8133 40.7853 43.6703 40.7492 43.5391C40.3569 42.1209 39.3247 41.138 38.4744 40.7923C36.7195 40.0835 34.292 40.4153 31.9471 40.736C30.3949 40.9484 28.7879 41.1664 27.7835 40.9887C27.2274 40.8894 26.6582 40.6382 26.0001 40.348C24.2161 39.5601 21.7726 38.4828 17.2251 39.4692C14.8025 39.9974 12.9289 41.3511 11.6586 42.5707V40.4868C11.6586 39.9121 11.1928 39.4456 10.6173 39.4456H1.04125C0.465788 39.4456 0 39.9121 0 40.4868V63.9588C0 64.5336 0.465788 65 1.04125 65H10.6173C11.1928 65 11.6586 64.5336 11.6586 63.9588V59.1621C13.9618 59.6744 18.8752 60.6566 22.6612 60.6566C27.3961 60.6566 33.198 59.582 36.7695 58.0438C43.3419 55.2164 54.1647 43.0171 55.0414 42.0196C55.8092 41.3184 56.2645 40.3626 56.3249 39.3206C56.386 38.2606 56.0306 37.2346 55.3246 36.4336ZM9.57607 62.9189H2.08251V41.5288H9.57607V62.9189ZM53.6114 40.507C53.5774 40.5361 53.5455 40.568 53.5163 40.6014C53.4039 40.7298 42.2222 53.4317 35.9455 56.1327C32.6059 57.571 27.1434 58.5762 22.6612 58.5762C18.853 58.5762 13.6231 57.4746 11.6586 57.0275V45.7306C12.232 44.9295 14.379 42.2216 17.6673 41.5052C21.5519 40.6618 23.4678 41.508 25.1588 42.2542C25.9078 42.5846 26.6152 42.8963 27.4162 43.0393C28.7442 43.276 30.4359 43.0448 32.2282 42.7998C34.2094 42.5284 36.4543 42.2229 37.692 42.7227C38.0051 42.8505 38.5382 43.36 38.7416 44.0951C38.9429 44.8219 38.7638 45.5654 38.2175 46.3061L37.3443 47.0856C37.3359 47.0932 37.3325 47.1043 37.3248 47.112C34.4711 49.0813 26.7533 51.4353 23.3553 51.1666C22.7799 51.1215 22.2815 51.5526 22.2377 52.126C22.194 52.6994 22.623 53.1999 23.1964 53.2436C23.4102 53.2595 23.6379 53.2672 23.8781 53.2672C28.4381 53.2672 37.465 50.3975 39.728 47.7506L51.0749 37.6234C51.4512 37.2909 51.9301 37.1236 52.4376 37.1562C52.9492 37.1881 53.4191 37.42 53.7621 37.8101C54.1036 38.1981 54.2757 38.6924 54.2459 39.2019C54.216 39.7087 53.9911 40.1717 53.6114 40.507Z" fill="#E92BED"/>
<path id="Vector_2" d="M13.9132 13.0039H16.2192V34.0213C16.2192 34.5961 16.685 35.0625 17.2605 35.0625H39.3184C39.8932 35.0625 40.3597 34.5961 40.3597 34.0213V13.0039H42.6692C43.1176 13.0039 43.5154 12.7172 43.657 12.2924C43.7986 11.8669 43.6528 11.399 43.2946 11.1296L28.733 0.207577C28.3589 -0.0721731 27.8438 -0.0687023 27.4738 0.215213L13.278 11.1373C12.9247 11.4094 12.7838 11.8759 12.9275 12.2979C13.0705 12.7207 13.4675 13.0039 13.9132 13.0039ZM28.1166 2.3484L39.5461 10.9214H39.3191C38.7443 10.9214 38.2778 11.3872 38.2778 11.9626V32.98H18.3017V11.9626C18.3017 11.3872 17.8359 10.9214 17.2605 10.9214H16.9738L28.1166 2.3484Z" fill="#E92BED"/>
<path id="Vector_3" d="M24.3003 28.0223H32.2798C32.8545 28.0223 33.321 27.5565 33.321 26.981V15.0441C33.321 14.4686 32.8545 14.0028 32.2798 14.0028H24.3003C23.7248 14.0028 23.259 14.4686 23.259 15.0441V26.981C23.259 27.5565 23.7255 28.0223 24.3003 28.0223ZM25.3415 16.0853H31.2385V25.9398H25.3415V16.0853Z" fill="#E92BED"/>
</g>
</svg>
