<svg width="65" height="65" viewBox="0 0 65 65" fill="none" xmlns="http://www.w3.org/2000/svg">
<g id="Group">
<path id="Vector" d="M64.697 39.7898C64.697 34.7851 60.6897 30.7076 55.7179 30.5773C52.07 21.3248 43.1053 14.7342 32.6048 14.5939C33.4518 13.5457 34.2716 12.2183 34.3053 10.9639C34.3733 8.26968 32.6857 7.28593 31.4535 6.5678C30.3359 5.91627 29.7989 5.55542 29.7968 4.48074C29.7925 2.36073 31.8237 2.16456 32.2246 2.14737C32.8175 2.12947 33.2836 1.63402 33.2657 1.04119C33.247 0.448362 32.7566 -0.00986232 32.1595 0.000161342C30.5965 0.0481317 27.6417 1.04692 27.6495 4.48646C27.656 6.83988 29.2261 7.75489 30.3724 8.42361C31.6032 9.14102 32.1924 9.54626 32.1588 10.9095C32.1316 11.9333 30.643 13.7154 29.5233 14.7378C20.0674 15.7652 12.1702 22.0436 8.80507 30.5881C3.91352 30.8122 0 34.8481 0 39.7912C0 44.7393 3.91424 48.7781 8.80578 49.0022C12.4916 58.3586 21.6132 65 32.2633 65C42.9098 65 52.0285 58.3622 55.7172 49.0108C60.689 48.8798 64.697 44.7987 64.697 39.7898ZM2.14721 39.7898C2.14721 36.2915 4.70253 33.3861 8.04399 32.8205C7.40534 35.0364 7.05594 37.3734 7.05594 39.7919C7.05594 42.2119 7.40605 44.5503 8.04542 46.767C4.70324 46.2006 2.14721 43.2916 2.14721 39.7898ZM32.2626 62.8506C19.5483 62.8506 9.20387 52.5069 9.20387 39.7919C9.20387 27.0769 19.5483 16.7325 32.2626 16.7325C44.9776 16.7325 55.3213 27.0769 55.3213 39.7919C55.3213 52.5069 44.9776 62.8506 32.2626 62.8506ZM56.4719 46.7949C57.117 44.5696 57.4692 42.222 57.4692 39.7919C57.4692 37.3626 57.117 35.0157 56.4726 32.7918C59.9014 33.2794 62.5483 36.2278 62.5483 39.7898C62.5491 43.3561 59.9007 46.3073 56.4719 46.7949Z" fill="#812D9F"/>
<path id="Vector_2" d="M25.6569 37.0654C25.6569 37.6582 26.1373 38.1394 26.7309 38.1394C27.3244 38.1394 27.8048 37.6582 27.8048 37.0654C27.8048 34.3139 25.566 32.0751 22.8131 32.0751C20.0601 32.0751 17.8206 34.3139 17.8206 37.0654C17.8206 37.6582 18.301 38.1394 18.8945 38.1394C19.4881 38.1394 19.9685 37.6582 19.9685 37.0654C19.9685 35.4989 21.2444 34.223 22.8131 34.223C24.381 34.223 25.6569 35.4989 25.6569 37.0654Z" fill="#812D9F"/>
<path id="Vector_3" d="M41.4486 32.0751C38.6956 32.0751 36.4561 34.3139 36.4561 37.0654C36.4561 37.6582 36.9372 38.1394 37.53 38.1394C38.1228 38.1394 38.604 37.6582 38.604 37.0654C38.604 35.4989 39.8798 34.223 41.4486 34.223C43.0173 34.223 44.2924 35.4982 44.2924 37.0654C44.2924 37.6582 44.7735 38.1394 45.3664 38.1394C45.9592 38.1394 46.4403 37.6582 46.4403 37.0654C46.4403 34.3139 44.2008 32.0751 41.4486 32.0751Z" fill="#812D9F"/>
<path id="Vector_4" d="M42.2992 44.1401C41.7063 44.1401 41.2252 44.6213 41.2252 45.2141C41.2252 50.1565 37.205 54.1781 32.2626 54.1781C27.321 54.1781 23.3008 50.1572 23.3008 45.2141C23.3008 44.6213 22.8203 44.1401 22.2268 44.1401C21.6333 44.1401 21.1528 44.6213 21.1528 45.2141C21.1528 51.3414 26.1367 56.326 32.2626 56.326C38.3892 56.326 43.3731 51.3414 43.3731 45.2141C43.3731 44.6213 42.8927 44.1401 42.2992 44.1401Z" fill="#812D9F"/>
</g>
</svg>
