<svg width="181" height="179" viewBox="0 0 181 179" fill="none" xmlns="http://www.w3.org/2000/svg">
<path d="M76.3783 5.96515C84.4624 -1.11302 96.5376 -1.11303 104.622 5.96515L111 11.55C115.195 15.2231 120.612 17.1947 126.187 17.0775L134.663 16.8993C145.405 16.6734 154.656 24.4352 156.299 35.0537L157.595 43.432C158.447 48.9423 161.33 53.9346 165.676 57.4281L172.283 62.7399C180.658 69.472 182.754 81.3638 177.188 90.5541L172.795 97.8056C169.906 102.575 168.905 108.252 169.989 113.721L171.636 122.038C173.724 132.578 167.686 143.035 157.515 146.497L149.489 149.229C144.21 151.025 139.794 154.731 137.108 159.617L133.025 167.047C127.849 176.463 116.502 180.593 106.485 176.706L98.5806 173.64C93.3823 171.623 87.6177 171.623 82.4194 173.64L74.5154 176.706C64.498 180.593 53.151 176.463 47.9753 167.047L43.8916 159.617C41.2058 154.731 36.7899 151.025 31.5114 149.229L23.4855 146.497C13.3136 143.035 7.27594 132.578 9.36381 122.038L11.0112 113.721C12.0947 108.252 11.0937 102.575 8.20483 97.8056L3.81242 90.5542C-1.75445 81.3638 0.342396 69.472 8.71681 62.7399L15.3245 57.4281C19.6702 53.9346 22.5525 48.9423 23.4051 43.432L24.7014 35.0537C26.3444 24.4352 35.5946 16.6734 46.3371 16.8993L54.8132 17.0775C60.3878 17.1947 65.8048 15.2231 69.9998 11.55L76.3783 5.96515Z" stroke="white" stroke-width="0.90367"/>
</svg>
