<svg width="200" height="199" viewBox="0 0 200 199" fill="none" xmlns="http://www.w3.org/2000/svg">
<path d="M84.0436 6.97105C93.1779 -1.02675 106.822 -1.02676 115.956 6.97104L123.015 13.1513C127.563 17.1337 133.436 19.2714 139.48 19.1443L148.86 18.947C160.998 18.6918 171.45 27.4621 173.307 39.4602L174.741 48.7316C175.666 54.7059 178.791 60.1187 183.502 63.9064L190.814 69.7844C200.277 77.3912 202.646 90.828 196.356 101.212L191.495 109.237C188.363 114.408 187.278 120.563 188.453 126.493L190.276 135.696C192.635 147.605 185.813 159.421 174.319 163.333L165.438 166.356C159.715 168.304 154.927 172.321 152.015 177.619L147.496 185.841C141.648 196.48 128.827 201.147 117.508 196.755L108.761 193.362C103.125 191.175 96.875 191.175 91.2388 193.362L82.4923 196.755C71.1734 201.147 58.3521 196.48 52.5041 185.841L47.9851 177.619C45.0731 172.321 40.2852 168.304 34.5622 166.356L25.6807 163.333C14.1873 159.421 7.36518 147.605 9.72431 135.696L11.5473 126.493C12.722 120.563 11.6367 114.408 8.50459 109.237L3.64395 101.212C-2.64618 90.828 -0.276908 77.3912 9.18554 69.7844L16.4976 63.9064C21.2093 60.1187 24.3343 54.7059 25.2587 48.7316L26.6933 39.4602C28.5497 27.4621 39.0017 18.6918 51.1399 18.947L60.5195 19.1443C66.5636 19.2713 72.4368 17.1337 76.9852 13.1513L84.0436 6.97105Z" fill="#30D2FF"/>
</svg>
